<?xml version="1.0" standalone="no"?>
<!DOCTYPE svg PUBLIC "-//W3C//DTD SVG 20010904//EN"
 "http://www.w3.org/TR/2001/REC-SVG-20010904/DTD/svg10.dtd">
<svg version="1.0" xmlns="http://www.w3.org/2000/svg"
 width="231.000000pt" height="137.000000pt" viewBox="0 0 231.000000 137.000000"
 preserveAspectRatio="xMidYMid meet">

<g transform="translate(0.000000,137.000000) scale(0.100000,-0.100000)"
fill="#000000" stroke="none">
<path d="M1847 1314 c-4 -4 -7 -16 -7 -26 0 -10 -7 -18 -15 -18 -8 0 -15 9
-15 20 0 11 -5 20 -11 20 -5 0 -8 -4 -5 -9 3 -5 -1 -14 -9 -21 -8 -7 -13 -22
-11 -34 2 -11 -2 -37 -9 -56 -6 -19 -12 -53 -14 -75 -2 -38 -7 -74 -12 -85 -1
-3 -4 -16 -5 -30 -2 -14 -5 -36 -6 -50 -2 -14 -6 -29 -9 -35 -3 -5 -7 -28 -8
-50 -1 -21 -4 -41 -6 -43 -5 -6 -37 13 -38 24 -1 5 -9 8 -17 6 -8 -2 -23 -3
-32 -3 -10 0 -20 -4 -23 -10 -4 -5 -19 -2 -36 6 -16 9 -29 11 -29 6 0 -5 -8
-8 -17 -7 -10 0 -18 -6 -18 -14 0 -8 -3 -20 -7 -25 -4 -6 -3 -17 2 -25 5 -8 5
-21 0 -30 -4 -8 -5 -34 0 -57 5 -28 4 -44 -4 -46 -8 -3 -8 -8 1 -17 7 -7 41
-14 80 -15 37 -2 70 -4 73 -5 3 -1 10 -1 15 0 22 5 114 2 135 -5 15 -5 25 -2
31 6 6 10 13 11 26 4 10 -6 42 -8 73 -5 30 4 103 5 162 4 111 -2 122 2 108 41
-4 11 -4 34 0 52 4 18 5 35 1 38 -3 4 -6 14 -6 23 0 9 -16 22 -39 31 -35 13
-39 13 -48 -2 -12 -22 -30 -21 -56 1 -14 12 -18 23 -12 32 5 9 4 20 -3 29 -10
12 -9 13 2 6 10 -6 12 -4 5 6 -4 8 -9 30 -10 49 -1 19 -3 37 -4 40 -1 3 -2 7
-2 10 0 4 -44 4 -68 1 -3 -1 -6 -19 -7 -41 -2 -70 -5 -90 -14 -96 -5 -3 -10 1
-10 8 -1 7 -3 27 -4 43 -2 17 -6 50 -10 75 -3 25 -8 70 -9 100 -2 30 -8 90
-15 132 -7 43 -10 82 -7 86 7 12 -18 45 -27 36z"/>
<path d="M287 1218 c2 -5 -13 -9 -34 -10 -51 -2 -56 -2 -70 -11 -6 -4 -23 -8
-37 -9 -14 -1 -26 -5 -26 -9 0 -7 -40 -22 -53 -20 -5 1 -6 -3 -3 -8 4 -5 0
-13 -8 -18 -8 -4 -16 -15 -18 -23 -2 -8 -10 -22 -19 -30 -16 -15 -23 -53 -7
-44 4 3 11 -2 14 -11 6 -14 9 -14 30 0 13 8 34 15 46 15 27 1 52 18 60 41 8
22 147 48 201 38 77 -13 75 -47 -5 -84 -53 -25 -98 -32 -98 -17 0 5 11 19 25
32 30 28 31 36 6 43 -24 6 -47 -7 -101 -58 -43 -40 -83 -54 -95 -34 -8 12 -48
-26 -52 -50 -1 -12 7 -23 25 -31 25 -12 26 -13 7 -21 -11 -4 -16 -8 -11 -8 5
-1 3 -7 -3 -14 -6 -8 -7 -17 -3 -21 4 -4 2 -7 -3 -6 -21 5 -36 0 -30 -9 3 -5
1 -12 -4 -15 -5 -3 -8 -25 -6 -48 2 -32 9 -47 31 -65 16 -13 36 -23 44 -24 8
0 31 -2 50 -3 19 -2 50 3 69 11 18 8 36 12 39 8 3 -3 16 4 28 16 12 12 33 22
47 23 14 0 23 6 20 12 -5 15 48 53 65 47 15 -6 74 55 66 68 -5 8 3 11 24 8 4
-1 5 -6 3 -12 -2 -7 -4 -18 -4 -24 0 -7 -3 -13 -7 -13 -8 0 -28 -68 -27 -92 0
-17 16 -28 47 -34 16 -3 50 16 81 47 17 17 19 18 20 2 1 -10 0 -22 -1 -28 -1
-5 1 -7 5 -3 4 4 14 1 22 -7 8 -9 33 -15 56 -15 27 0 37 3 29 9 -10 6 -8 10
10 16 42 14 59 12 69 -6 5 -11 16 -19 24 -19 8 0 15 -6 15 -14 0 -13 4 -13 27
-1 15 8 31 11 36 8 6 -3 7 -1 3 5 -4 7 -1 12 8 12 9 0 16 5 16 10 0 6 5 10 11
10 7 0 18 8 25 18 12 16 15 15 40 -15 25 -30 64 -45 64 -25 0 5 12 14 26 21
23 10 26 9 31 -8 3 -11 12 -22 20 -25 19 -8 63 3 63 15 0 5 7 9 15 9 8 0 15 5
15 10 0 6 11 16 25 22 14 6 25 17 25 25 0 7 4 13 8 13 13 0 10 30 -2 31 -25 3
-42 -4 -61 -24 -29 -32 -32 -1 -4 57 12 25 19 54 16 65 -2 10 0 26 5 35 7 13
5 23 -7 36 -18 20 -38 19 -83 -4 -16 -8 -32 -12 -36 -9 -3 4 -6 2 -6 -4 0 -5
-16 -18 -35 -29 -19 -10 -35 -22 -35 -26 0 -14 -47 -57 -55 -50 -5 4 -5 2 -1
-5 4 -7 -2 -21 -14 -33 -11 -11 -20 -24 -20 -30 0 -5 -6 -10 -14 -10 -7 0 -26
-6 -42 -14 -43 -23 -96 14 -59 41 11 7 15 13 10 13 -5 0 0 6 10 14 14 10 25
11 37 5 13 -7 18 -6 18 2 0 7 3 10 6 6 10 -10 41 25 57 65 14 34 14 39 1 53
-16 15 -77 18 -68 3 3 -4 -1 -8 -9 -8 -8 0 -26 -11 -41 -25 -15 -14 -32 -25
-37 -25 -6 0 -8 -4 -4 -9 3 -6 -4 -15 -15 -21 -11 -6 -22 -21 -26 -34 -6 -25
-44 -64 -66 -67 -40 -5 -51 16 -23 45 9 8 17 19 18 23 1 4 5 7 10 5 4 -1 7 5
7 13 0 8 7 15 16 15 10 0 14 6 11 15 -4 8 -3 17 2 19 10 6 8 37 -3 55 -6 10
-4 12 10 7 14 -4 25 4 43 29 27 40 23 60 -13 67 -29 6 -54 -23 -62 -70 -3 -15
-9 -28 -14 -30 -16 -6 -60 -51 -60 -62 0 -5 -4 -10 -9 -10 -5 0 -12 -11 -15
-25 -9 -34 -52 -79 -71 -71 -13 5 -12 11 6 43 12 21 25 41 30 44 15 9 18 43 5
60 -13 18 -42 30 -50 21 -13 -13 -44 -11 -56 3 -16 20 -29 19 -53 -2 -15 -13
-18 -14 -12 -3 8 13 7 13 -9 1 -11 -10 -13 -16 -6 -21 8 -5 6 -18 -8 -44 l-19
-36 -24 19 c-13 10 -28 20 -34 22 -5 2 -9 8 -7 13 2 5 -4 4 -12 -4 -12 -10
-16 -10 -16 0 0 8 -10 11 -29 8 -23 -3 -27 -1 -23 15 3 11 10 16 20 12 8 -3
21 0 29 7 8 6 31 11 50 10 20 -2 32 1 29 7 -4 5 8 14 26 21 39 13 105 89 87
100 -8 6 -8 9 1 12 9 3 7 13 -7 36 -11 17 -23 29 -26 25 -4 -3 -7 0 -7 9 0 8
-6 15 -12 16 -27 4 -63 10 -63 12 0 1 -21 3 -47 3 -25 1 -44 -1 -41 -5z m-4
-337 c15 -6 27 -17 27 -25 0 -34 -98 -78 -150 -67 -53 10 -59 32 -22 79 31 38
33 39 74 31 24 -4 55 -12 71 -18z m877 7 c0 -17 -84 -108 -100 -108 -27 0 -2
47 45 82 57 43 55 42 55 26z"/>
<path d="M1450 580 c0 -8 -12 -10 -35 -7 -22 3 -39 0 -46 -9 -6 -7 -27 -18
-47 -25 -20 -6 -43 -16 -49 -22 -7 -5 -13 -6 -13 -3 0 10 -38 -27 -40 -39 -2
-5 -8 -29 -15 -51 -7 -23 -10 -46 -6 -50 8 -12 31 -16 31 -5 0 4 11 7 25 6 14
-2 25 1 25 6 0 5 11 11 24 15 13 3 26 14 29 25 4 13 10 17 23 12 11 -4 15 -3
11 4 -6 9 12 23 29 23 15 0 -28 -79 -49 -88 -4 -2 -5 -8 -1 -13 3 -5 1 -9 -5
-9 -5 0 -13 -15 -17 -32 -3 -18 -15 -40 -25 -49 -11 -9 -19 -22 -19 -28 0 -7
-5 -9 -12 -5 -7 4 -8 3 -4 -5 9 -14 -2 -53 -13 -47 -4 3 -8 0 -8 -7 -1 -7 -3
-28 -6 -47 -2 -19 -2 -41 0 -47 8 -21 59 -41 77 -31 9 5 21 6 26 3 6 -3 10 -1
10 4 0 6 12 11 28 11 15 0 38 8 51 17 18 12 22 13 17 2 -6 -10 -4 -10 6 1 7 8
32 24 55 35 22 11 39 24 35 29 -3 5 2 7 11 3 10 -4 18 1 22 14 4 10 11 19 16
19 5 0 14 10 19 23 5 12 9 16 9 8 1 -11 5 -10 16 5 14 18 14 17 9 -11 -11 -65
-10 -91 8 -117 34 -50 103 -43 160 17 29 31 32 31 53 -1 11 -18 13 -24 4 -19
-8 5 -6 -1 5 -13 10 -12 22 -19 27 -17 4 3 10 1 14 -5 9 -15 19 -12 45 10 18
16 25 17 32 8 4 -7 8 -11 9 -8 6 32 10 42 26 59 16 17 20 18 37 5 11 -8 17
-14 13 -14 -4 0 -3 -8 2 -18 10 -18 55 -27 75 -15 6 4 17 8 23 9 7 1 20 9 29
18 8 9 22 16 30 16 8 0 14 4 14 9 0 5 9 13 20 16 11 4 18 10 15 15 -3 5 1 11
7 13 10 4 10 8 -2 16 -8 5 -18 7 -22 4 -5 -2 -6 18 -2 46 4 34 3 56 -6 65 -6
9 -9 20 -6 25 16 26 -61 34 -91 10 -7 -6 -13 -9 -13 -5 0 3 -13 -8 -30 -26
-16 -17 -30 -27 -30 -22 0 5 -11 -15 -23 -45 -12 -30 -31 -59 -42 -65 -11 -6
-26 -19 -33 -29 -7 -9 -18 -15 -23 -12 -5 4 -9 2 -9 -3 0 -14 -36 -3 -54 17
-13 15 -12 20 14 50 24 27 35 33 60 29 16 -3 28 -2 25 0 -3 3 4 13 15 22 10 9
24 30 30 46 10 25 8 31 -10 46 -12 10 -27 18 -34 18 -18 0 -67 -36 -59 -43 3
-4 -3 -7 -15 -7 -12 0 -22 -3 -22 -8 0 -4 -11 -19 -24 -34 -14 -14 -22 -29
-19 -32 4 -3 1 -6 -5 -6 -7 0 -12 -6 -12 -13 0 -13 -50 -61 -81 -78 -28 -14
-49 -11 -49 9 0 18 39 62 45 52 2 -3 15 5 29 17 14 13 26 20 26 16 0 -16 29
34 30 50 0 10 4 16 9 12 20 -12 18 11 -3 38 -19 23 -27 26 -54 21 -18 -4 -32
-11 -32 -16 0 -6 -7 -8 -15 -4 -8 3 -14 1 -12 -3 1 -5 -2 -9 -6 -9 -5 0 -22
-13 -39 -29 l-29 -28 6 45 c7 44 8 114 3 155 -2 11 -19 32 -38 47 -19 15 -41
33 -49 40 -8 6 -30 13 -50 15 -19 1 -41 5 -48 7 -7 3 -13 0 -13 -6 0 -7 -5 -6
-15 2 -11 10 -15 10 -15 0z m132 -128 c73 -36 49 -157 -46 -228 -71 -53 -86
-59 -180 -71 l-49 -6 7 28 c4 16 16 41 27 56 10 15 19 31 19 36 0 5 14 31 32
59 42 66 68 115 68 132 0 17 83 14 122 -6z m208 -162 c0 -13 -37 -50 -50 -50
-16 0 -12 12 12 37 23 24 38 30 38 13z m388 -60 c-5 -17 -8 -36 -5 -44 7 -19
-12 -36 -41 -36 -22 0 -24 3 -18 32 7 34 53 91 67 82 4 -2 3 -18 -3 -34z"/>
<path d="M1836 524 c-13 -19 -26 -31 -29 -27 -4 3 -7 -1 -7 -10 0 -9 -4 -17
-9 -17 -13 0 -7 -40 8 -49 9 -6 24 0 46 21 18 16 40 34 49 41 9 7 18 26 22 42
5 28 3 30 -26 31 -25 1 -36 -6 -54 -32z"/>
<path d="M841 474 c0 -11 3 -14 6 -6 3 7 2 16 -1 19 -3 4 -6 -2 -5 -13z"/>
<path d="M35 470 c-3 -6 1 -7 9 -4 18 7 21 14 7 14 -6 0 -13 -4 -16 -10z"/>
<path d="M78 388 c-19 -6 -28 -17 -28 -31 l0 -21 19 21 c11 12 26 23 33 26 7
2 11 7 8 9 -3 3 -17 1 -32 -4z"/>
<path d="M220 390 l-65 -6 63 -4 c38 -3 62 -1 62 5 0 6 4 4 9 -4 6 -9 14 -11
26 -4 16 9 15 11 -6 14 -13 2 -53 2 -89 -1z"/>
<path d="M340 391 c0 -8 36 -18 90 -25 20 -2 25 -9 25 -29 -1 -29 22 -45 31
-23 3 8 1 23 -5 35 -15 27 -15 28 21 29 19 0 37 -6 45 -16 12 -15 13 -14 3 6
-6 12 -16 22 -23 23 -46 4 -84 3 -81 -2 8 -14 -25 -17 -43 -4 -20 16 -63 20
-63 6z"/>
<path d="M45 319 c-4 -6 -5 -12 -2 -15 2 -3 7 2 10 11 7 17 1 20 -8 4z"/>
<path d="M551 284 c0 -11 3 -14 6 -6 3 7 2 16 -1 19 -3 4 -6 -2 -5 -13z"/>
<path d="M41 274 c0 -11 3 -14 6 -6 3 7 2 16 -1 19 -3 4 -6 -2 -5 -13z"/>
<path d="M427 283 c-8 -7 11 -43 22 -43 10 0 3 38 -9 45 -4 2 -10 2 -13 -2z"/>
<path d="M510 270 c0 -5 5 -10 11 -10 5 0 7 5 4 10 -3 6 -8 10 -11 10 -2 0 -4
-4 -4 -10z"/>
<path d="M471 255 c1 -19 18 -51 18 -35 0 8 -4 22 -9 30 -5 8 -9 11 -9 5z"/>
<path d="M587 240 c3 -11 7 -20 9 -20 2 0 4 9 4 20 0 11 -4 20 -9 20 -5 0 -7
-9 -4 -20z"/>
<path d="M547 233 c-9 -8 -7 -90 2 -123 6 -22 8 -23 14 -7 4 11 4 24 0 30 -4
7 -6 33 -5 60 2 48 0 52 -11 40z"/>
<path d="M42 143 c-2 -82 0 -93 17 -103 12 -6 22 -6 26 -1 3 5 -4 12 -14 16
-18 5 -21 17 -24 93 l-3 87 -2 -92z"/>
<path d="M360 171 c0 -5 -7 -17 -17 -26 -14 -14 -14 -18 -2 -26 26 -16 38 -10
37 21 -1 27 -18 57 -18 31z"/>
<path d="M415 150 c3 -5 8 -10 11 -10 2 0 4 5 4 10 0 6 -5 10 -11 10 -5 0 -7
-4 -4 -10z"/>
<path d="M812 140 c0 -14 2 -19 5 -12 2 6 2 18 0 25 -3 6 -5 1 -5 -13z"/>
<path d="M275 69 c-22 -4 -44 -5 -48 -2 -4 3 -14 0 -21 -6 -10 -9 -21 -8 -42
1 -22 10 -28 10 -32 0 -2 -6 -10 -12 -18 -12 -8 0 -14 -5 -14 -11 0 -5 8 -9
18 -7 9 1 23 -1 30 -5 6 -5 12 -4 12 1 0 11 10 12 152 15 67 1 118 -2 118 -7
0 -5 3 -6 7 -3 3 4 12 2 20 -4 10 -9 13 -8 13 1 0 7 7 10 15 6 8 -3 15 0 15 7
0 7 9 13 20 14 11 1 20 -4 20 -10 0 -7 4 -6 10 3 14 22 -29 32 -52 12 -12 -10
-26 -12 -45 -7 -53 14 -138 21 -178 14z"/>
<path d="M830 61 c0 -6 4 -13 10 -16 6 -3 7 1 4 9 -7 18 -14 21 -14 7z"/>
<path d="M794 38 l-19 -23 23 19 c21 18 27 26 19 26 -2 0 -12 -10 -23 -22z"/>
<path d="M597 39 c7 -7 15 -10 18 -7 3 3 -2 9 -12 12 -14 6 -15 5 -6 -5z"/>
<path d="M1105 40 c-3 -6 1 -7 9 -4 18 7 21 14 7 14 -6 0 -13 -4 -16 -10z"/>
</g>
</svg>
